<?xml version="1.0" encoding="UTF-8"?>
<svg xmlns="http://www.w3.org/2000/svg" xmlns:xlink="http://www.w3.org/1999/xlink" viewBox="0 0 500 500" width="500px" height="500px">
<g id="surface65199065">
<path style=" stroke:none;fill-rule:nonzero;fill:rgb(96.078432%,63.529414%,50.980395%);fill-opacity:1;" d="M 489.582031 197.917969 L 451.042969 197.917969 C 450 196.875 450 196.875 448.957031 195.832031 C 458.332031 188.542969 464.582031 177.082031 464.582031 164.582031 C 464.582031 142.707031 446.875 125 425 125 L 352.082031 125 L 352.082031 235.417969 L 317.707031 132.292969 L 314.582031 125 L 256.25 125 L 254.167969 132.292969 L 245.832031 158.332031 L 245.832031 125 L 94.792969 125 C 75 125 60.417969 140.625 60.417969 160.417969 C 60.417969 169.792969 63.542969 173.957031 65.625 177.082031 C 67.707031 179.167969 76.042969 189.582031 81.25 196.875 L 0 196.875 L 0 238.542969 L 102.082031 238.542969 C 121.875 238.542969 137.5 222.917969 137.5 203.125 C 137.5 193.75 134.375 189.582031 132.292969 186.457031 L 116.667969 165.625 L 153.125 165.625 L 153.125 238.542969 L 201.042969 238.542969 L 201.042969 165.625 L 242.707031 165.625 L 223.957031 225 L 218.75 239.582031 L 266.667969 239.582031 L 268.75 232.292969 L 273.957031 218.75 L 298.957031 218.75 L 304.167969 232.292969 L 306.25 239.582031 L 400 239.582031 L 400 217.707031 C 406.25 223.957031 412.5 229.167969 416.667969 233.332031 C 418.75 234.375 422.917969 239.582031 431.25 239.582031 L 500 239.582031 L 500 197.917969 Z M 161.457031 273.957031 L 130.207031 367.707031 L 128.125 375 L 95.832031 375 L 93.75 367.707031 L 83.332031 339.582031 L 73.957031 367.707031 L 70.832031 375 L 37.5 375 L 35.417969 367.707031 L 4.167969 273.957031 L 0 260.417969 L 48.957031 260.417969 L 51.042969 267.707031 L 54.167969 279.167969 L 58.332031 267.707031 L 61.457031 260.417969 L 105.207031 260.417969 L 107.292969 267.707031 L 111.457031 279.167969 L 114.582031 267.707031 L 116.667969 260.417969 L 166.667969 260.417969 Z M 430.207031 260.417969 C 410.417969 260.417969 394.792969 276.042969 394.792969 295.832031 C 394.792969 305.207031 397.917969 309.375 400 312.5 C 402.082031 314.582031 410.417969 325 416.667969 332.292969 L 369.792969 332.292969 C 369.792969 332.292969 369.792969 332.292969 368.75 332.292969 L 367.707031 331.25 C 377.082031 323.957031 383.332031 312.5 383.332031 300 C 383.332031 278.125 365.625 260.417969 343.75 260.417969 L 270.832031 260.417969 L 270.832031 375 L 266.667969 361.457031 L 235.417969 267.707031 L 233.332031 260.417969 L 175 260.417969 L 172.917969 267.707031 L 142.707031 361.457031 L 137.5 375 L 184.375 375 L 186.457031 367.707031 L 191.667969 354.167969 L 216.667969 354.167969 L 221.875 367.707031 L 223.957031 375 L 319.792969 375 L 319.792969 353.125 C 326.042969 359.375 332.292969 364.582031 337.5 368.75 C 341.667969 372.917969 346.875 375 353.125 375 L 439.582031 375 C 459.375 375 475 359.375 475 339.582031 C 475 330.207031 471.875 326.042969 469.792969 322.917969 L 454.167969 302.082031 L 500 302.082031 L 500 260.417969 Z M 430.207031 260.417969 "/>
<path style=" stroke:none;fill-rule:nonzero;fill:rgb(0%,0%,0%);fill-opacity:1;" d="M 234.375 135.417969 C 234.375 135.417969 103.125 135.417969 93.75 135.417969 C 80.207031 135.417969 69.792969 145.832031 69.792969 160.417969 C 69.792969 166.667969 71.875 168.75 72.917969 170.832031 C 76.042969 175 94.792969 197.917969 94.792969 197.917969 C 94.792969 198.957031 95.832031 200 95.832031 201.042969 C 96.875 205.207031 93.75 208.332031 89.582031 208.332031 L 10.417969 208.332031 L 10.417969 229.167969 C 10.417969 229.167969 94.792969 229.167969 102.082031 229.167969 C 115.625 229.167969 127.082031 218.75 127.082031 204.167969 C 127.082031 197.917969 125 195.832031 123.957031 193.75 L 104.167969 166.667969 C 104.167969 165.625 103.125 164.582031 103.125 163.542969 C 103.125 159.375 106.25 156.25 110.417969 156.25 L 164.582031 156.25 L 164.582031 229.167969 L 191.667969 229.167969 L 191.667969 156.25 L 236.457031 156.25 L 236.457031 135.417969 Z M 307.292969 135.417969 L 263.542969 135.417969 L 233.332031 229.167969 L 259.375 229.167969 L 266.667969 208.332031 L 306.25 208.332031 L 313.542969 229.167969 L 339.582031 229.167969 Z M 272.917969 187.5 L 285.417969 150 L 297.917969 187.5 Z M 451.042969 208.332031 C 446.875 208.332031 444.792969 206.25 442.707031 204.167969 C 437.5 197.917969 431.25 192.707031 431.25 192.707031 C 443.75 189.582031 453.125 178.125 453.125 164.582031 C 453.125 147.917969 439.582031 135.417969 423.957031 135.417969 L 361.457031 135.417969 L 361.457031 229.167969 L 389.582031 229.167969 L 389.582031 193.75 C 389.582031 193.75 413.542969 216.667969 423.957031 226.042969 C 425 227.082031 428.125 229.167969 432.292969 229.167969 C 435.417969 229.167969 489.582031 229.167969 489.582031 229.167969 L 489.582031 208.332031 Z M 389.582031 156.25 L 416.667969 156.25 C 422.917969 156.25 428.125 160.417969 428.125 166.667969 C 428.125 172.917969 422.917969 177.082031 416.667969 177.082031 L 389.582031 177.082031 Z M 125 270.832031 L 111.457031 311.457031 L 97.917969 270.832031 L 68.75 270.832031 L 54.167969 311.457031 L 40.625 270.832031 L 14.582031 270.832031 L 45.832031 364.582031 L 63.542969 364.582031 L 83.332031 307.292969 L 103.125 364.582031 L 120.832031 364.582031 L 152.082031 270.832031 Z M 444.792969 291.667969 L 489.582031 291.667969 L 489.582031 270.832031 C 489.582031 270.832031 439.582031 270.832031 430.207031 270.832031 C 416.667969 270.832031 405.207031 281.25 405.207031 295.832031 C 405.207031 302.082031 407.292969 304.167969 408.332031 306.25 C 411.457031 309.375 431.25 332.292969 431.25 332.292969 C 431.25 333.332031 432.292969 334.375 432.292969 335.417969 C 432.292969 339.582031 429.167969 342.707031 426.042969 342.707031 C 426.042969 342.707031 371.875 342.707031 370.832031 342.707031 C 366.667969 342.707031 364.582031 340.625 362.5 338.542969 C 357.292969 332.292969 352.082031 327.082031 352.082031 327.082031 C 364.582031 323.957031 373.957031 312.5 373.957031 298.957031 C 373.957031 282.292969 360.417969 269.792969 344.792969 269.792969 L 281.25 269.792969 L 281.25 363.542969 L 309.375 363.542969 L 309.375 328.125 C 309.375 328.125 333.332031 351.042969 343.75 360.417969 C 344.792969 361.457031 347.917969 363.542969 352.082031 363.542969 C 355.207031 363.542969 433.332031 363.542969 438.542969 363.542969 C 452.082031 363.542969 463.542969 354.167969 463.542969 338.542969 C 463.542969 332.292969 461.457031 330.207031 460.417969 328.125 L 439.582031 302.082031 C 439.582031 301.042969 438.542969 300 438.542969 298.957031 C 438.542969 294.792969 441.667969 291.667969 444.792969 291.667969 Z M 336.457031 312.5 L 309.375 312.5 L 309.375 291.667969 L 336.457031 291.667969 C 342.707031 291.667969 347.917969 295.832031 347.917969 302.082031 C 347.917969 308.332031 342.707031 312.5 336.457031 312.5 Z M 226.042969 270.832031 L 182.292969 270.832031 L 152.082031 364.582031 L 177.082031 364.582031 L 184.375 343.75 L 223.957031 343.75 L 231.25 364.582031 L 257.292969 364.582031 Z M 191.667969 322.917969 L 204.167969 285.417969 L 216.667969 322.917969 Z M 191.667969 322.917969 "/>
</g>
</svg>
