<?xml version="1.0" encoding="UTF-8"?>
<svg xmlns="http://www.w3.org/2000/svg" xmlns:xlink="http://www.w3.org/1999/xlink" viewBox="0 0 50 50" width="50px" height="50px">
<g id="surface65484752">
<path style=" stroke:none;fill-rule:nonzero;fill:rgb(100%,100%,100%);fill-opacity:1;" d="M 48.957031 19.792969 L 45.105469 19.792969 C 45 19.6875 45 19.6875 44.894531 19.582031 C 45.832031 18.855469 46.457031 17.707031 46.457031 16.457031 C 46.457031 14.269531 44.6875 12.5 42.5 12.5 L 35.207031 12.5 L 35.207031 23.542969 L 31.769531 13.230469 L 31.457031 12.5 L 25.625 12.5 L 25.417969 13.230469 L 24.582031 15.832031 L 24.582031 12.5 L 9.480469 12.5 C 7.5 12.5 6.042969 14.0625 6.042969 16.042969 C 6.042969 16.980469 6.355469 17.394531 6.5625 17.707031 C 6.769531 17.917969 7.605469 18.957031 8.125 19.6875 L 0 19.6875 L 0 23.855469 L 10.207031 23.855469 C 12.1875 23.855469 13.75 22.292969 13.75 20.3125 C 13.75 19.375 13.4375 18.957031 13.230469 18.644531 L 11.667969 16.5625 L 15.3125 16.5625 L 15.3125 23.855469 L 20.105469 23.855469 L 20.105469 16.5625 L 24.269531 16.5625 L 22.394531 22.5 L 21.875 23.957031 L 26.667969 23.957031 L 26.875 23.230469 L 27.394531 21.875 L 29.894531 21.875 L 30.417969 23.230469 L 30.625 23.957031 L 40 23.957031 L 40 21.769531 C 40.625 22.394531 41.25 22.917969 41.667969 23.332031 C 41.875 23.4375 42.292969 23.957031 43.125 23.957031 L 50 23.957031 L 50 19.792969 Z M 16.144531 27.394531 L 13.019531 36.769531 L 12.8125 37.5 L 9.582031 37.5 L 9.375 36.769531 L 8.332031 33.957031 L 7.394531 36.769531 L 7.082031 37.5 L 3.75 37.5 L 3.542969 36.769531 L 0.417969 27.394531 L 0 26.042969 L 4.894531 26.042969 L 5.105469 26.769531 L 5.417969 27.917969 L 5.832031 26.769531 L 6.144531 26.042969 L 10.519531 26.042969 L 10.730469 26.769531 L 11.144531 27.917969 L 11.457031 26.769531 L 11.667969 26.042969 L 16.667969 26.042969 Z M 43.019531 26.042969 C 41.042969 26.042969 39.480469 27.605469 39.480469 29.582031 C 39.480469 30.519531 39.792969 30.9375 40 31.25 C 40.207031 31.457031 41.042969 32.5 41.667969 33.230469 L 36.980469 33.230469 C 36.980469 33.230469 36.980469 33.230469 36.875 33.230469 L 36.769531 33.125 C 37.707031 32.394531 38.332031 31.25 38.332031 30 C 38.332031 27.8125 36.5625 26.042969 34.375 26.042969 L 27.082031 26.042969 L 27.082031 37.5 L 26.667969 36.144531 L 23.542969 26.769531 L 23.332031 26.042969 L 17.5 26.042969 L 17.292969 26.769531 L 14.269531 36.144531 L 13.75 37.5 L 18.4375 37.5 L 18.644531 36.769531 L 19.167969 35.417969 L 21.667969 35.417969 L 22.1875 36.769531 L 22.394531 37.5 L 31.980469 37.5 L 31.980469 35.3125 C 32.605469 35.9375 33.230469 36.457031 33.75 36.875 C 34.167969 37.292969 34.6875 37.5 35.3125 37.5 L 43.957031 37.5 C 45.9375 37.5 47.5 35.9375 47.5 33.957031 C 47.5 33.019531 47.1875 32.605469 46.980469 32.292969 L 45.417969 30.207031 L 50 30.207031 L 50 26.042969 Z M 43.019531 26.042969 "/>
<path style=" stroke:none;fill-rule:nonzero;fill:rgb(0%,0%,0%);fill-opacity:1;" d="M 23.4375 13.542969 C 23.4375 13.542969 10.3125 13.542969 9.375 13.542969 C 8.019531 13.542969 6.980469 14.582031 6.980469 16.042969 C 6.980469 16.667969 7.1875 16.875 7.292969 17.082031 C 7.605469 17.5 9.480469 19.792969 9.480469 19.792969 C 9.480469 19.894531 9.582031 20 9.582031 20.105469 C 9.6875 20.519531 9.375 20.832031 8.957031 20.832031 L 1.042969 20.832031 L 1.042969 22.917969 C 1.042969 22.917969 9.480469 22.917969 10.207031 22.917969 C 11.5625 22.917969 12.707031 21.875 12.707031 20.417969 C 12.707031 19.792969 12.5 19.582031 12.394531 19.375 L 10.417969 16.667969 C 10.417969 16.5625 10.3125 16.457031 10.3125 16.355469 C 10.3125 15.9375 10.625 15.625 11.042969 15.625 L 16.457031 15.625 L 16.457031 22.917969 L 19.167969 22.917969 L 19.167969 15.625 L 23.644531 15.625 L 23.644531 13.542969 Z M 30.730469 13.542969 L 26.355469 13.542969 L 23.332031 22.917969 L 25.9375 22.917969 L 26.667969 20.832031 L 30.625 20.832031 L 31.355469 22.917969 L 33.957031 22.917969 Z M 27.292969 18.75 L 28.542969 15 L 29.792969 18.75 Z M 45.105469 20.832031 C 44.6875 20.832031 44.480469 20.625 44.269531 20.417969 C 43.75 19.792969 43.125 19.269531 43.125 19.269531 C 44.375 18.957031 45.3125 17.8125 45.3125 16.457031 C 45.3125 14.792969 43.957031 13.542969 42.394531 13.542969 L 36.144531 13.542969 L 36.144531 22.917969 L 38.957031 22.917969 L 38.957031 19.375 C 38.957031 19.375 41.355469 21.667969 42.394531 22.605469 C 42.5 22.707031 42.8125 22.917969 43.230469 22.917969 C 43.542969 22.917969 48.957031 22.917969 48.957031 22.917969 L 48.957031 20.832031 Z M 38.957031 15.625 L 41.667969 15.625 C 42.292969 15.625 42.8125 16.042969 42.8125 16.667969 C 42.8125 17.292969 42.292969 17.707031 41.667969 17.707031 L 38.957031 17.707031 Z M 12.5 27.082031 L 11.144531 31.144531 L 9.792969 27.082031 L 6.875 27.082031 L 5.417969 31.144531 L 4.0625 27.082031 L 1.457031 27.082031 L 4.582031 36.457031 L 6.355469 36.457031 L 8.332031 30.730469 L 10.3125 36.457031 L 12.082031 36.457031 L 15.207031 27.082031 Z M 44.480469 29.167969 L 48.957031 29.167969 L 48.957031 27.082031 C 48.957031 27.082031 43.957031 27.082031 43.019531 27.082031 C 41.667969 27.082031 40.519531 28.125 40.519531 29.582031 C 40.519531 30.207031 40.730469 30.417969 40.832031 30.625 C 41.144531 30.9375 43.125 33.230469 43.125 33.230469 C 43.125 33.332031 43.230469 33.4375 43.230469 33.542969 C 43.230469 33.957031 42.917969 34.269531 42.605469 34.269531 C 42.605469 34.269531 37.1875 34.269531 37.082031 34.269531 C 36.667969 34.269531 36.457031 34.0625 36.25 33.855469 C 35.730469 33.230469 35.207031 32.707031 35.207031 32.707031 C 36.457031 32.394531 37.394531 31.25 37.394531 29.894531 C 37.394531 28.230469 36.042969 26.980469 34.480469 26.980469 L 28.125 26.980469 L 28.125 36.355469 L 30.9375 36.355469 L 30.9375 32.8125 C 30.9375 32.8125 33.332031 35.105469 34.375 36.042969 C 34.480469 36.144531 34.792969 36.355469 35.207031 36.355469 C 35.519531 36.355469 43.332031 36.355469 43.855469 36.355469 C 45.207031 36.355469 46.355469 35.417969 46.355469 33.855469 C 46.355469 33.230469 46.144531 33.019531 46.042969 32.8125 L 43.957031 30.207031 C 43.957031 30.105469 43.855469 30 43.855469 29.894531 C 43.855469 29.480469 44.167969 29.167969 44.480469 29.167969 Z M 33.644531 31.25 L 30.9375 31.25 L 30.9375 29.167969 L 33.644531 29.167969 C 34.269531 29.167969 34.792969 29.582031 34.792969 30.207031 C 34.792969 30.832031 34.269531 31.25 33.644531 31.25 Z M 22.605469 27.082031 L 18.230469 27.082031 L 15.207031 36.457031 L 17.707031 36.457031 L 18.4375 34.375 L 22.394531 34.375 L 23.125 36.457031 L 25.730469 36.457031 Z M 19.167969 32.292969 L 20.417969 28.542969 L 21.667969 32.292969 Z M 19.167969 32.292969 "/>
</g>
</svg>
